<svg width="144" height="144" viewBox="0 0 144 144" xmlns="http://www.w3.org/2000/svg">
    <g transform="translate(8,32)" stroke="#0088ff" fill="#0088ff">
        <path
            d="M 63.937 73.039 L 63.937 5.662 Q 63.937 3.553 65.38 2.054 Q 66.823 0.556 68.932 0.556 L 95.128 0.556 A 41.677 41.677 0 0 1 102.263 1.127 Q 106.115 1.798 109.188 3.254 A 20.033 20.033 0 0 1 113.498 5.995 Q 119.992 11.434 119.992 20.647 A 22.383 22.383 0 0 1 119.493 25.498 A 15.871 15.871 0 0 1 116.939 31.358 Q 113.887 35.632 109.114 37.741 A 26.479 26.479 0 0 1 115.851 40.921 A 22.903 22.903 0 0 1 120.047 44.512 A 16.114 16.114 0 0 1 124.189 53.856 A 21.651 21.651 0 0 1 124.321 56.278 A 24.304 24.304 0 0 1 123.373 63.245 A 18.389 18.389 0 0 1 117.439 72.262 A 20.902 20.902 0 0 1 111.015 75.835 Q 105.287 77.896 96.921 78.025 A 73.217 73.217 0 0 1 95.794 78.034 L 68.932 78.034 A 5.074 5.074 0 0 1 66.88 77.627 A 4.867 4.867 0 0 1 65.38 76.591 A 4.818 4.818 0 0 1 63.937 73.104 A 6.118 6.118 0 0 1 63.937 73.039 Z M 0.001 71.041 L 0.001 5.107 Q 0.001 2.998 1.444 1.499 Q 2.887 0.001 4.996 0.001 A 4.911 4.911 0 0 1 8.556 1.453 A 5.983 5.983 0 0 1 8.603 1.499 A 4.912 4.912 0 0 1 10.101 5.041 A 5.894 5.894 0 0 1 10.102 5.107 L 10.102 67.933 L 46.399 67.933 A 4.911 4.911 0 0 1 49.959 69.385 A 5.983 5.983 0 0 1 50.006 69.431 A 4.912 4.912 0 0 1 51.504 72.973 A 5.894 5.894 0 0 1 51.505 73.039 A 4.872 4.872 0 0 1 51.017 75.228 A 4.909 4.909 0 0 1 50.006 76.591 Q 48.508 78.034 46.399 78.034 L 6.994 78.034 A 6.725 6.725 0 0 1 2.119 76.044 A 8.211 8.211 0 0 1 2.054 75.98 A 6.727 6.727 0 0 1 0.001 71.131 A 8.06 8.06 0 0 1 0.001 71.041 Z M 74.038 68.599 L 94.795 68.599 Q 103.541 68.599 108.149 66.401 A 11.544 11.544 0 0 0 110.057 65.269 A 10.738 10.738 0 0 0 114.473 57.406 A 15.19 15.19 0 0 0 114.553 55.834 A 10.592 10.592 0 0 0 108.593 45.733 Q 104.123 43.385 96.302 43.196 A 57.767 57.767 0 0 0 94.906 43.18 L 74.038 43.18 L 74.038 68.599 Z M 74.038 34.078 L 92.464 34.078 Q 102.343 34.078 106.339 30.748 A 10.854 10.854 0 0 0 110.17 23.749 A 15.788 15.788 0 0 0 110.335 21.424 Q 110.335 16.423 106.409 13.36 A 12.9 12.9 0 0 0 106.061 13.099 Q 102.574 10.562 96.98 10.096 A 31.652 31.652 0 0 0 94.351 9.991 L 74.038 9.991 L 74.038 34.078 Z"
            vector-effect="non-scaling-stroke"
        />
    </g>
</svg>
