<svg version="1.1" baseProfile="full" width="1010" height="1160" xmlns="http://www.w3.org/2000/svg">
<polygon points="117 244, 117 356, 20 300" fill="DodgerBlue" stroke="white" stroke-width="16" stroke-linejoin="miter" />
<polygon points="20 300, 20 412, 117 356" fill="DodgerBlue" stroke="white" stroke-width="16" stroke-linejoin="miter" />
<polygon points="117 356, 117 468, 20 412" fill="DodgerBlue" stroke="white" stroke-width="16" stroke-linejoin="miter" />
<polygon points="20 412, 20 524, 117 468" fill="DodgerBlue" stroke="white" stroke-width="16" stroke-linejoin="miter" />
<polygon points="117 468, 117 580, 20 524" fill="DodgerBlue" stroke="white" stroke-width="16" stroke-linejoin="miter" />
<polygon points="20 524, 20 636, 117 580" fill="DodgerBlue" stroke="white" stroke-width="16" stroke-linejoin="miter" />
<polygon points="117 580, 117 692, 20 636" fill="DodgerBlue" stroke="white" stroke-width="16" stroke-linejoin="miter" />
<polygon points="20 636, 20 748, 117 692" fill="DodgerBlue" stroke="white" stroke-width="16" stroke-linejoin="miter" />
<polygon points="117 692, 117 804, 20 748" fill="DodgerBlue" stroke="white" stroke-width="16" stroke-linejoin="miter" />
<polygon points="20 748, 20 860, 117 804" fill="DodgerBlue" stroke="white" stroke-width="16" stroke-linejoin="miter" />
<polygon points="117 804, 117 916, 20 860" fill="DodgerBlue" stroke="white" stroke-width="16" stroke-linejoin="miter" />
<polygon points="214 188, 214 300, 117 244" fill="DodgerBlue" stroke="white" stroke-width="16" stroke-linejoin="miter" />
<polygon points="117 244, 117 356, 214 300" fill="DodgerBlue" stroke="white" stroke-width="16" stroke-linejoin="miter" />
<polygon points="214 300, 214 412, 117 356" fill="DodgerBlue" stroke="white" stroke-width="16" stroke-linejoin="miter" />
<polygon points="117 356, 117 468, 214 412" fill="DodgerBlue" stroke="white" stroke-width="16" stroke-linejoin="miter" />
<polygon points="214 412, 214 524, 117 468" fill="DodgerBlue" stroke="white" stroke-width="16" stroke-linejoin="miter" />
<polygon points="117 468, 117 580, 214 524" fill="DodgerBlue" stroke="white" stroke-width="16" stroke-linejoin="miter" />
<polygon points="214 524, 214 636, 117 580" fill="DodgerBlue" stroke="white" stroke-width="16" stroke-linejoin="miter" />
<polygon points="117 580, 117 692, 214 636" fill="DodgerBlue" stroke="white" stroke-width="16" stroke-linejoin="miter" />
<polygon points="214 636, 214 748, 117 692" fill="DodgerBlue" stroke="white" stroke-width="16" stroke-linejoin="miter" />
<polygon points="117 692, 117 804, 214 748" fill="DodgerBlue" stroke="white" stroke-width="16" stroke-linejoin="miter" />
<polygon points="214 748, 214 860, 117 804" fill="DodgerBlue" stroke="white" stroke-width="16" stroke-linejoin="miter" />
<polygon points="117 804, 117 916, 214 860" fill="DodgerBlue" stroke="white" stroke-width="16" stroke-linejoin="miter" />
<polygon points="214 860, 214 972, 117 916" fill="DodgerBlue" stroke="white" stroke-width="16" stroke-linejoin="miter" />
<polygon points="311 132, 311 244, 214 188" fill="DodgerBlue" stroke="white" stroke-width="16" stroke-linejoin="miter" />
<polygon points="214 188, 214 300, 311 244" fill="DodgerBlue" stroke="white" stroke-width="16" stroke-linejoin="miter" />
<polygon points="311 244, 311 356, 214 300" fill="DodgerBlue" stroke="white" stroke-width="16" stroke-linejoin="miter" />
<polygon points="214 300, 214 412, 311 356" fill="DodgerBlue" stroke="white" stroke-width="16" stroke-linejoin="miter" />
<polygon points="214 748, 214 860, 311 804" fill="DodgerBlue" stroke="white" stroke-width="16" stroke-linejoin="miter" />
<polygon points="311 804, 311 916, 214 860" fill="DodgerBlue" stroke="white" stroke-width="16" stroke-linejoin="miter" />
<polygon points="214 860, 214 972, 311 916" fill="DodgerBlue" stroke="white" stroke-width="16" stroke-linejoin="miter" />
<polygon points="311 916, 311 1028, 214 972" fill="DodgerBlue" stroke="white" stroke-width="16" stroke-linejoin="miter" />
<polygon points="408 76, 408 188, 311 132" fill="DodgerBlue" stroke="white" stroke-width="16" stroke-linejoin="miter" />
<polygon points="311 132, 311 244, 408 188" fill="DodgerBlue" stroke="white" stroke-width="16" stroke-linejoin="miter" />
<polygon points="408 188, 408 300, 311 244" fill="DodgerBlue" stroke="white" stroke-width="16" stroke-linejoin="miter" />
<polygon points="311 244, 311 356, 408 300" fill="DodgerBlue" stroke="white" stroke-width="16" stroke-linejoin="miter" />
<polygon points="311 804, 311 916, 408 860" fill="DodgerBlue" stroke="white" stroke-width="16" stroke-linejoin="miter" />
<polygon points="408 860, 408 972, 311 916" fill="DodgerBlue" stroke="white" stroke-width="16" stroke-linejoin="miter" />
<polygon points="311 916, 311 1028, 408 972" fill="DodgerBlue" stroke="white" stroke-width="16" stroke-linejoin="miter" />
<polygon points="408 972, 408 1084, 311 1028" fill="DodgerBlue" stroke="white" stroke-width="16" stroke-linejoin="miter" />
<polygon points="505 20, 505 132, 408 76" fill="DodgerBlue" stroke="white" stroke-width="16" stroke-linejoin="miter" />
<polygon points="408 76, 408 188, 505 132" fill="DodgerBlue" stroke="white" stroke-width="16" stroke-linejoin="miter" />
<polygon points="505 132, 505 244, 408 188" fill="DodgerBlue" stroke="white" stroke-width="16" stroke-linejoin="miter" />
<polygon points="408 188, 408 300, 505 244" fill="DodgerBlue" stroke="white" stroke-width="16" stroke-linejoin="miter" />
<polygon points="408 860, 408 972, 505 916" fill="DodgerBlue" stroke="white" stroke-width="16" stroke-linejoin="miter" />
<polygon points="505 916, 505 1028, 408 972" fill="DodgerBlue" stroke="white" stroke-width="16" stroke-linejoin="miter" />
<polygon points="408 972, 408 1084, 505 1028" fill="DodgerBlue" stroke="white" stroke-width="16" stroke-linejoin="miter" />
<polygon points="505 1028, 505 1140, 408 1084" fill="DodgerBlue" stroke="white" stroke-width="16" stroke-linejoin="miter" />
<polygon points="505 20, 505 132, 602 76" fill="DodgerBlue" stroke="white" stroke-width="16" stroke-linejoin="miter" />
<polygon points="602 76, 602 188, 505 132" fill="DodgerBlue" stroke="white" stroke-width="16" stroke-linejoin="miter" />
<polygon points="505 132, 505 244, 602 188" fill="DodgerBlue" stroke="white" stroke-width="16" stroke-linejoin="miter" />
<polygon points="602 188, 602 300, 505 244" fill="DodgerBlue" stroke="white" stroke-width="16" stroke-linejoin="miter" />
<polygon points="602 860, 602 972, 505 916" fill="DodgerBlue" stroke="white" stroke-width="16" stroke-linejoin="miter" />
<polygon points="505 916, 505 1028, 602 972" fill="DodgerBlue" stroke="white" stroke-width="16" stroke-linejoin="miter" />
<polygon points="602 972, 602 1084, 505 1028" fill="DodgerBlue" stroke="white" stroke-width="16" stroke-linejoin="miter" />
<polygon points="505 1028, 505 1140, 602 1084" fill="DodgerBlue" stroke="white" stroke-width="16" stroke-linejoin="miter" />
<polygon points="602 76, 602 188, 699 132" fill="DodgerBlue" stroke="white" stroke-width="16" stroke-linejoin="miter" />
<polygon points="699 132, 699 244, 602 188" fill="DodgerBlue" stroke="white" stroke-width="16" stroke-linejoin="miter" />
<polygon points="602 188, 602 300, 699 244" fill="DodgerBlue" stroke="white" stroke-width="16" stroke-linejoin="miter" />
<polygon points="699 244, 699 356, 602 300" fill="DodgerBlue" stroke="white" stroke-width="16" stroke-linejoin="miter" />
<polygon points="699 804, 699 916, 602 860" fill="DodgerBlue" stroke="white" stroke-width="16" stroke-linejoin="miter" />
<polygon points="602 860, 602 972, 699 916" fill="DodgerBlue" stroke="white" stroke-width="16" stroke-linejoin="miter" />
<polygon points="699 916, 699 1028, 602 972" fill="DodgerBlue" stroke="white" stroke-width="16" stroke-linejoin="miter" />
<polygon points="602 972, 602 1084, 699 1028" fill="DodgerBlue" stroke="white" stroke-width="16" stroke-linejoin="miter" />
<polygon points="699 132, 699 244, 796 188" fill="DodgerBlue" stroke="white" stroke-width="16" stroke-linejoin="miter" />
<polygon points="796 188, 796 300, 699 244" fill="DodgerBlue" stroke="white" stroke-width="16" stroke-linejoin="miter" />
<polygon points="699 244, 699 356, 796 300" fill="DodgerBlue" stroke="white" stroke-width="16" stroke-linejoin="miter" />
<polygon points="796 300, 796 412, 699 356" fill="DodgerBlue" stroke="white" stroke-width="16" stroke-linejoin="miter" />
<polygon points="796 748, 796 860, 699 804" fill="DodgerBlue" stroke="white" stroke-width="16" stroke-linejoin="miter" />
<polygon points="699 804, 699 916, 796 860" fill="DodgerBlue" stroke="white" stroke-width="16" stroke-linejoin="miter" />
<polygon points="796 860, 796 972, 699 916" fill="DodgerBlue" stroke="white" stroke-width="16" stroke-linejoin="miter" />
<polygon points="699 916, 699 1028, 796 972" fill="DodgerBlue" stroke="white" stroke-width="16" stroke-linejoin="miter" />
<polygon points="796 188, 796 300, 893 244" fill="DodgerBlue" stroke="white" stroke-width="16" stroke-linejoin="miter" />
<polygon points="893 244, 893 356, 796 300" fill="DodgerBlue" stroke="white" stroke-width="16" stroke-linejoin="miter" />
<polygon points="796 300, 796 412, 893 356" fill="DodgerBlue" stroke="white" stroke-width="16" stroke-linejoin="miter" />
<polygon points="796 748, 796 860, 893 804" fill="DodgerBlue" stroke="white" stroke-width="16" stroke-linejoin="miter" />
<polygon points="893 804, 893 916, 796 860" fill="DodgerBlue" stroke="white" stroke-width="16" stroke-linejoin="miter" />
<polygon points="796 860, 796 972, 893 916" fill="DodgerBlue" stroke="white" stroke-width="16" stroke-linejoin="miter" />
</svg>