<svg version="1.1" baseProfile="full" width="1200" height="1024" xmlns="http://www.w3.org/2000/svg">
<polygon points="264 124, 376 124, 320 27" fill="DodgerBlue" stroke="white" stroke-width="16" stroke-linejoin="miter" />
<polygon points="320 27, 432 27, 376 124" fill="DodgerBlue" stroke="white" stroke-width="16" stroke-linejoin="miter" />
<polygon points="376 124, 488 124, 432 27" fill="DodgerBlue" stroke="white" stroke-width="16" stroke-linejoin="miter" />
<polygon points="432 27, 544 27, 488 124" fill="DodgerBlue" stroke="white" stroke-width="16" stroke-linejoin="miter" />
<polygon points="488 124, 600 124, 544 27" fill="DodgerBlue" stroke="white" stroke-width="16" stroke-linejoin="miter" />
<polygon points="544 27, 656 27, 600 124" fill="DodgerBlue" stroke="white" stroke-width="16" stroke-linejoin="miter" />
<polygon points="600 124, 712 124, 656 27" fill="DodgerBlue" stroke="white" stroke-width="16" stroke-linejoin="miter" />
<polygon points="656 27, 768 27, 712 124" fill="DodgerBlue" stroke="white" stroke-width="16" stroke-linejoin="miter" />
<polygon points="712 124, 824 124, 768 27" fill="DodgerBlue" stroke="white" stroke-width="16" stroke-linejoin="miter" />
<polygon points="768 27, 880 27, 824 124" fill="DodgerBlue" stroke="white" stroke-width="16" stroke-linejoin="miter" />
<polygon points="824 124, 936 124, 880 27" fill="DodgerBlue" stroke="white" stroke-width="16" stroke-linejoin="miter" />
<polygon points="208 221, 320 221, 264 124" fill="DodgerBlue" stroke="white" stroke-width="16" stroke-linejoin="miter" />
<polygon points="264 124, 376 124, 320 221" fill="DodgerBlue" stroke="white" stroke-width="16" stroke-linejoin="miter" />
<polygon points="320 221, 432 221, 376 124" fill="DodgerBlue" stroke="white" stroke-width="16" stroke-linejoin="miter" />
<polygon points="376 124, 488 124, 432 221" fill="DodgerBlue" stroke="white" stroke-width="16" stroke-linejoin="miter" />
<polygon points="432 221, 544 221, 488 124" fill="DodgerBlue" stroke="white" stroke-width="16" stroke-linejoin="miter" />
<polygon points="488 124, 600 124, 544 221" fill="DodgerBlue" stroke="white" stroke-width="16" stroke-linejoin="miter" />
<polygon points="544 221, 656 221, 600 124" fill="DodgerBlue" stroke="white" stroke-width="16" stroke-linejoin="miter" />
<polygon points="600 124, 712 124, 656 221" fill="DodgerBlue" stroke="white" stroke-width="16" stroke-linejoin="miter" />
<polygon points="656 221, 768 221, 712 124" fill="DodgerBlue" stroke="white" stroke-width="16" stroke-linejoin="miter" />
<polygon points="712 124, 824 124, 768 221" fill="DodgerBlue" stroke="white" stroke-width="16" stroke-linejoin="miter" />
<polygon points="768 221, 880 221, 824 124" fill="DodgerBlue" stroke="white" stroke-width="16" stroke-linejoin="miter" />
<polygon points="824 124, 936 124, 880 221" fill="DodgerBlue" stroke="white" stroke-width="16" stroke-linejoin="miter" />
<polygon points="880 221, 992 221, 936 124" fill="DodgerBlue" stroke="white" stroke-width="16" stroke-linejoin="miter" />
<polygon points="152 318, 264 318, 208 221" fill="DodgerBlue" stroke="white" stroke-width="16" stroke-linejoin="miter" />
<polygon points="208 221, 320 221, 264 318" fill="DodgerBlue" stroke="white" stroke-width="16" stroke-linejoin="miter" />
<polygon points="264 318, 376 318, 320 221" fill="DodgerBlue" stroke="white" stroke-width="16" stroke-linejoin="miter" />
<polygon points="320 221, 432 221, 376 318" fill="DodgerBlue" stroke="white" stroke-width="16" stroke-linejoin="miter" />
<polygon points="768 221, 880 221, 824 318" fill="DodgerBlue" stroke="white" stroke-width="16" stroke-linejoin="miter" />
<polygon points="824 318, 936 318, 880 221" fill="DodgerBlue" stroke="white" stroke-width="16" stroke-linejoin="miter" />
<polygon points="880 221, 992 221, 936 318" fill="DodgerBlue" stroke="white" stroke-width="16" stroke-linejoin="miter" />
<polygon points="936 318, 1048 318, 992 221" fill="DodgerBlue" stroke="white" stroke-width="16" stroke-linejoin="miter" />
<polygon points="96 415, 208 415, 152 318" fill="DodgerBlue" stroke="white" stroke-width="16" stroke-linejoin="miter" />
<polygon points="152 318, 264 318, 208 415" fill="DodgerBlue" stroke="white" stroke-width="16" stroke-linejoin="miter" />
<polygon points="208 415, 320 415, 264 318" fill="DodgerBlue" stroke="white" stroke-width="16" stroke-linejoin="miter" />
<polygon points="264 318, 376 318, 320 415" fill="DodgerBlue" stroke="white" stroke-width="16" stroke-linejoin="miter" />
<polygon points="824 318, 936 318, 880 415" fill="DodgerBlue" stroke="white" stroke-width="16" stroke-linejoin="miter" />
<polygon points="880 415, 992 415, 936 318" fill="DodgerBlue" stroke="white" stroke-width="16" stroke-linejoin="miter" />
<polygon points="936 318, 1048 318, 992 415" fill="DodgerBlue" stroke="white" stroke-width="16" stroke-linejoin="miter" />
<polygon points="992 415, 1104 415, 1048 318" fill="DodgerBlue" stroke="white" stroke-width="16" stroke-linejoin="miter" />
<polygon points="40 512, 152 512, 96 415" fill="DodgerBlue" stroke="white" stroke-width="16" stroke-linejoin="miter" />
<polygon points="96 415, 208 415, 152 512" fill="DodgerBlue" stroke="white" stroke-width="16" stroke-linejoin="miter" />
<polygon points="152 512, 264 512, 208 415" fill="DodgerBlue" stroke="white" stroke-width="16" stroke-linejoin="miter" />
<polygon points="208 415, 320 415, 264 512" fill="DodgerBlue" stroke="white" stroke-width="16" stroke-linejoin="miter" />
<polygon points="264 512, 376 512, 320 415" fill="DodgerBlue" stroke="white" stroke-width="16" stroke-linejoin="miter" />
<polygon points="320 415, 432 415, 376 512" fill="DodgerBlue" stroke="white" stroke-width="16" stroke-linejoin="miter" />
<polygon points="376 512, 488 512, 432 415" fill="DodgerBlue" stroke="white" stroke-width="16" stroke-linejoin="miter" />
<polygon points="432 415, 544 415, 488 512" fill="DodgerBlue" stroke="white" stroke-width="16" stroke-linejoin="miter" />
<polygon points="488 512, 600 512, 544 415" fill="DodgerBlue" stroke="white" stroke-width="16" stroke-linejoin="miter" />
<polygon points="544 415, 656 415, 600 512" fill="DodgerBlue" stroke="white" stroke-width="16" stroke-linejoin="miter" />
<polygon points="600 512, 712 512, 656 415" fill="DodgerBlue" stroke="white" stroke-width="16" stroke-linejoin="miter" />
<polygon points="656 415, 768 415, 712 512" fill="DodgerBlue" stroke="white" stroke-width="16" stroke-linejoin="miter" />
<polygon points="712 512, 824 512, 768 415" fill="DodgerBlue" stroke="white" stroke-width="16" stroke-linejoin="miter" />
<polygon points="768 415, 880 415, 824 512" fill="DodgerBlue" stroke="white" stroke-width="16" stroke-linejoin="miter" />
<polygon points="824 512, 936 512, 880 415" fill="DodgerBlue" stroke="white" stroke-width="16" stroke-linejoin="miter" />
<polygon points="880 415, 992 415, 936 512" fill="DodgerBlue" stroke="white" stroke-width="16" stroke-linejoin="miter" />
<polygon points="936 512, 1048 512, 992 415" fill="DodgerBlue" stroke="white" stroke-width="16" stroke-linejoin="miter" />
<polygon points="992 415, 1104 415, 1048 512" fill="DodgerBlue" stroke="white" stroke-width="16" stroke-linejoin="miter" />
<polygon points="40 512, 152 512, 96 609" fill="DodgerBlue" stroke="white" stroke-width="16" stroke-linejoin="miter" />
<polygon points="96 609, 208 609, 152 512" fill="DodgerBlue" stroke="white" stroke-width="16" stroke-linejoin="miter" />
<polygon points="152 512, 264 512, 208 609" fill="DodgerBlue" stroke="white" stroke-width="16" stroke-linejoin="miter" />
<polygon points="208 609, 320 609, 264 512" fill="DodgerBlue" stroke="white" stroke-width="16" stroke-linejoin="miter" />
<polygon points="264 512, 376 512, 320 609" fill="DodgerBlue" stroke="white" stroke-width="16" stroke-linejoin="miter" />
<polygon points="320 609, 432 609, 376 512" fill="DodgerBlue" stroke="white" stroke-width="16" stroke-linejoin="miter" />
<polygon points="376 512, 488 512, 432 609" fill="DodgerBlue" stroke="white" stroke-width="16" stroke-linejoin="miter" />
<polygon points="432 609, 544 609, 488 512" fill="DodgerBlue" stroke="white" stroke-width="16" stroke-linejoin="miter" />
<polygon points="488 512, 600 512, 544 609" fill="DodgerBlue" stroke="white" stroke-width="16" stroke-linejoin="miter" />
<polygon points="544 609, 656 609, 600 512" fill="DodgerBlue" stroke="white" stroke-width="16" stroke-linejoin="miter" />
<polygon points="600 512, 712 512, 656 609" fill="DodgerBlue" stroke="white" stroke-width="16" stroke-linejoin="miter" />
<polygon points="656 609, 768 609, 712 512" fill="DodgerBlue" stroke="white" stroke-width="16" stroke-linejoin="miter" />
<polygon points="712 512, 824 512, 768 609" fill="DodgerBlue" stroke="white" stroke-width="16" stroke-linejoin="miter" />
<polygon points="768 609, 880 609, 824 512" fill="DodgerBlue" stroke="white" stroke-width="16" stroke-linejoin="miter" />
<polygon points="824 512, 936 512, 880 609" fill="DodgerBlue" stroke="white" stroke-width="16" stroke-linejoin="miter" />
<polygon points="880 609, 992 609, 936 512" fill="DodgerBlue" stroke="white" stroke-width="16" stroke-linejoin="miter" />
<polygon points="936 512, 1048 512, 992 609" fill="DodgerBlue" stroke="white" stroke-width="16" stroke-linejoin="miter" />
<polygon points="96 609, 208 609, 152 706" fill="DodgerBlue" stroke="white" stroke-width="16" stroke-linejoin="miter" />
<polygon points="152 706, 264 706, 208 609" fill="DodgerBlue" stroke="white" stroke-width="16" stroke-linejoin="miter" />
<polygon points="208 609, 320 609, 264 706" fill="DodgerBlue" stroke="white" stroke-width="16" stroke-linejoin="miter" />
<polygon points="264 706, 376 706, 320 609" fill="DodgerBlue" stroke="white" stroke-width="16" stroke-linejoin="miter" />
<polygon points="152 706, 264 706, 208 803" fill="DodgerBlue" stroke="white" stroke-width="16" stroke-linejoin="miter" />
<polygon points="208 803, 320 803, 264 706" fill="DodgerBlue" stroke="white" stroke-width="16" stroke-linejoin="miter" />
<polygon points="264 706, 376 706, 320 803" fill="DodgerBlue" stroke="white" stroke-width="16" stroke-linejoin="miter" />
<polygon points="320 803, 432 803, 376 706" fill="DodgerBlue" stroke="white" stroke-width="16" stroke-linejoin="miter" />
<polygon points="768 803, 880 803, 824 706" fill="DodgerBlue" stroke="white" stroke-width="16" stroke-linejoin="miter" />
<polygon points="824 706, 936 706, 880 803" fill="DodgerBlue" stroke="white" stroke-width="16" stroke-linejoin="miter" />
<polygon points="880 803, 992 803, 936 706" fill="DodgerBlue" stroke="white" stroke-width="16" stroke-linejoin="miter" />
<polygon points="936 706, 1048 706, 992 803" fill="DodgerBlue" stroke="white" stroke-width="16" stroke-linejoin="miter" />
<polygon points="208 803, 320 803, 264 900" fill="DodgerBlue" stroke="white" stroke-width="16" stroke-linejoin="miter" />
<polygon points="264 900, 376 900, 320 803" fill="DodgerBlue" stroke="white" stroke-width="16" stroke-linejoin="miter" />
<polygon points="320 803, 432 803, 376 900" fill="DodgerBlue" stroke="white" stroke-width="16" stroke-linejoin="miter" />
<polygon points="376 900, 488 900, 432 803" fill="DodgerBlue" stroke="white" stroke-width="16" stroke-linejoin="miter" />
<polygon points="432 803, 544 803, 488 900" fill="DodgerBlue" stroke="white" stroke-width="16" stroke-linejoin="miter" />
<polygon points="488 900, 600 900, 544 803" fill="DodgerBlue" stroke="white" stroke-width="16" stroke-linejoin="miter" />
<polygon points="544 803, 656 803, 600 900" fill="DodgerBlue" stroke="white" stroke-width="16" stroke-linejoin="miter" />
<polygon points="600 900, 712 900, 656 803" fill="DodgerBlue" stroke="white" stroke-width="16" stroke-linejoin="miter" />
<polygon points="656 803, 768 803, 712 900" fill="DodgerBlue" stroke="white" stroke-width="16" stroke-linejoin="miter" />
<polygon points="712 900, 824 900, 768 803" fill="DodgerBlue" stroke="white" stroke-width="16" stroke-linejoin="miter" />
<polygon points="768 803, 880 803, 824 900" fill="DodgerBlue" stroke="white" stroke-width="16" stroke-linejoin="miter" />
<polygon points="824 900, 936 900, 880 803" fill="DodgerBlue" stroke="white" stroke-width="16" stroke-linejoin="miter" />
<polygon points="880 803, 992 803, 936 900" fill="DodgerBlue" stroke="white" stroke-width="16" stroke-linejoin="miter" />
<polygon points="264 900, 376 900, 320 997" fill="DodgerBlue" stroke="white" stroke-width="16" stroke-linejoin="miter" />
<polygon points="320 997, 432 997, 376 900" fill="DodgerBlue" stroke="white" stroke-width="16" stroke-linejoin="miter" />
<polygon points="376 900, 488 900, 432 997" fill="DodgerBlue" stroke="white" stroke-width="16" stroke-linejoin="miter" />
<polygon points="432 997, 544 997, 488 900" fill="DodgerBlue" stroke="white" stroke-width="16" stroke-linejoin="miter" />
<polygon points="488 900, 600 900, 544 997" fill="DodgerBlue" stroke="white" stroke-width="16" stroke-linejoin="miter" />
<polygon points="544 997, 656 997, 600 900" fill="DodgerBlue" stroke="white" stroke-width="16" stroke-linejoin="miter" />
<polygon points="600 900, 712 900, 656 997" fill="DodgerBlue" stroke="white" stroke-width="16" stroke-linejoin="miter" />
<polygon points="656 997, 768 997, 712 900" fill="DodgerBlue" stroke="white" stroke-width="16" stroke-linejoin="miter" />
<polygon points="712 900, 824 900, 768 997" fill="DodgerBlue" stroke="white" stroke-width="16" stroke-linejoin="miter" />
<polygon points="768 997, 880 997, 824 900" fill="DodgerBlue" stroke="white" stroke-width="16" stroke-linejoin="miter" />
<polygon points="824 900, 936 900, 880 997" fill="DodgerBlue" stroke="white" stroke-width="16" stroke-linejoin="miter" />
</svg>